<svg width="94" height="36" viewBox="0 0 94 36" fill="none" xmlns="http://www.w3.org/2000/svg">
<g id="BKTC" style="mix-blend-mode:darken">
<path d="M0.894375 35V34.52L3.77438 33.8V2.6L0.894375 1.88V1.4H9.53438C11.0384 1.4 12.3344 1.576 13.4224 1.928C14.5424 2.248 15.4704 2.712 16.2064 3.32C16.9424 3.896 17.4864 4.584 17.8384 5.384C18.2224 6.152 18.4144 6.984 18.4144 7.88C18.4144 8.584 18.3024 9.208 18.0784 9.752C17.8864 10.296 17.6144 10.776 17.2624 11.192C16.9424 11.576 16.5584 11.928 16.1104 12.248C15.6944 12.536 15.2624 12.776 14.8144 12.968C13.7584 13.448 12.5584 13.752 11.2144 13.88C13.1984 14.072 14.9584 14.568 16.4944 15.368C17.1664 15.72 17.8064 16.152 18.4144 16.664C19.0544 17.144 19.6144 17.752 20.0944 18.488C20.6064 19.192 21.0064 20.024 21.2944 20.984C21.6144 21.912 21.7744 22.984 21.7744 24.2C21.7744 25.704 21.4864 27.112 20.9104 28.424C20.3344 29.736 19.5024 30.888 18.4144 31.88C17.3584 32.84 16.0784 33.608 14.5744 34.184C13.0704 34.728 11.3904 35 9.53438 35H0.894375ZM7.85438 14.36V34.04H9.53438C10.6224 34.04 11.6304 33.832 12.5584 33.416C13.4864 33 14.2864 32.376 14.9584 31.544C15.6624 30.712 16.2064 29.688 16.5904 28.472C17.0064 27.256 17.2144 25.832 17.2144 24.2C17.2144 22.568 17.0064 21.144 16.5904 19.928C16.2064 18.712 15.6624 17.688 14.9584 16.856C14.2864 16.024 13.4864 15.4 12.5584 14.984C11.6304 14.568 10.6224 14.36 9.53438 14.36H7.85438ZM7.85438 13.4H9.53438C10.9744 13.368 12.1264 12.904 12.9904 12.008C13.8864 11.08 14.3344 9.704 14.3344 7.88C14.3344 6.056 13.8864 4.68 12.9904 3.752C12.1264 2.824 10.9744 2.36 9.53438 2.36H7.85438V13.4ZM32.0888 22.52V33.8L34.9688 34.52V35H25.1288V34.52L28.0088 33.8V2.6L25.1288 1.88V1.4H34.9688V1.88L32.0888 2.6V20.84L42.4088 3.08L39.2888 1.88V1.4H46.4888V1.88L43.3688 3.08L37.3208 13.496L46.9688 33.8L49.8488 34.52V35H39.5288V34.52L42.4088 33.8L34.8248 17.816L32.0888 22.52ZM61.3575 33.8L64.2375 34.52V35H54.3975V34.52L57.2775 33.8V2.36H52.2375C52.2375 3.704 51.9655 4.952 51.4215 6.104C50.8775 7.256 50.1895 8.248 49.3575 9.08H48.8775C48.9095 8.664 48.9415 8.232 48.9735 7.784C49.0055 7.4 49.0375 7 49.0695 6.584C49.1015 6.136 49.1175 5.688 49.1175 5.24C49.1175 4.632 49.1015 4.104 49.0695 3.656C49.0375 3.176 49.0055 2.76 48.9735 2.408C48.9415 2.024 48.9095 1.688 48.8775 1.4H69.7575C69.6935 1.688 69.6455 2.024 69.6135 2.408C69.5815 2.76 69.5495 3.176 69.5175 3.656C69.5175 4.104 69.5175 4.632 69.5175 5.24C69.5175 5.688 69.5175 6.136 69.5175 6.584C69.5495 7 69.5815 7.4 69.6135 7.784C69.6455 8.232 69.6935 8.664 69.7575 9.08H69.2775C68.4455 8.248 67.7575 7.256 67.2135 6.104C66.6695 4.952 66.3975 3.704 66.3975 2.36H61.3575V33.8ZM84.4144 1.64C83.5184 1.64 82.6384 1.896 81.7744 2.408C80.9104 2.92 80.1424 3.816 79.4704 5.096C78.7984 6.344 78.2544 8.04 77.8384 10.184C77.4224 12.296 77.2144 14.968 77.2144 18.2C77.2144 21.432 77.4224 24.12 77.8384 26.264C78.2544 28.376 78.8144 30.072 79.5184 31.352C80.2224 32.6 81.0384 33.48 81.9664 33.992C82.8944 34.504 83.8704 34.76 84.8944 34.76C85.7264 34.76 86.5744 34.536 87.4384 34.088C88.3024 33.64 89.0864 33.016 89.7904 32.216C90.5264 31.416 91.1344 30.472 91.6144 29.384C92.1264 28.296 92.4464 27.128 92.5744 25.88H93.2944C93.1664 27.32 92.8464 28.648 92.3344 29.864C91.8224 31.048 91.1664 32.088 90.3664 32.984C89.5984 33.848 88.7024 34.52 87.6784 35C86.6544 35.48 85.5664 35.72 84.4144 35.72C82.9104 35.72 81.4544 35.368 80.0464 34.664C78.6384 33.928 77.3744 32.84 76.2544 31.4C75.1664 29.928 74.2864 28.104 73.6144 25.928C72.9744 23.72 72.6544 21.144 72.6544 18.2C72.6544 15.256 72.9744 12.696 73.6144 10.52C74.2864 8.312 75.1504 6.488 76.2064 5.048C77.2944 3.576 78.5104 2.488 79.8544 1.784C81.1984 1.048 82.5584 0.679998 83.9344 0.679998C84.7024 0.679998 85.3904 0.807999 85.9984 1.064C86.6384 1.32 87.1824 1.608 87.6304 1.928C88.1424 2.28 88.5904 2.68 88.9744 3.128C89.2304 2.648 89.5664 2.2 89.9824 1.784C90.4304 1.336 90.8944 1.048 91.3744 0.919998H92.0944C92.0304 1.4 91.9824 1.88 91.9504 2.36C91.9184 2.808 91.8864 3.288 91.8544 3.8C91.8544 4.28 91.8544 4.76 91.8544 5.24C91.8544 5.784 91.8544 6.328 91.8544 6.872C91.8864 7.384 91.9184 7.864 91.9504 8.312C91.9824 8.824 92.0304 9.32 92.0944 9.8H91.3744C90.6384 7.144 89.6464 5.128 88.3984 3.752C87.1824 2.344 85.8544 1.64 84.4144 1.64Z" fill="#FF4400"/>
</g>
</svg>
